
<svg width="50" height="55" viewBox="0 0 50 55" fill="none" xmlns="http://www.w3.org/2000/svg">
  <path d="M42.31 42.79c-5.004-1.098-9.305-2.02-9.305-2.02.746-.526 1.536-1.623 1.536-2.984 0-1.58-.834-2.502-1.492-2.984.878-.659 2.063-1.844 2.063-3.994 0-2.326-1.58-3.511-2.414-4.082.658-.614 1.58-1.843 1.58-3.555 0-3.028-2.326-4.389-4.214-5.135-1.536-.57-4.433-.79-6.978-.79-4.17 0-7.944.307-9.744.307-2.15 0-1.887-1.097-1.097-2.107.483-.57 6.584-8.602 7.725-10.05.79-1.054 1.711-2.063 2.414-1.668.746.395.439 2.238-.351 4.257-1.186 3.16-2.853 5.18-3.248 5.881l2.809 1.712c1.097-1.36 4.652-7.286 4.652-11.104 0-1.712-.658-3.16-1.931-3.95-1.273-.746-2.897-.702-4.345.176-.966.57-1.931 1.404-2.765 2.457-2.195 2.81-6.847 8.69-8.559 10.885-2.458 3.204-1.316 7.154 3.906 7.154 1.844 0 7.857-.439 10.183-.439 2.677 0 3.994.132 4.915.263 1.756.264 2.766 1.054 2.766 2.107 0 .746-.352 1.273-.966 1.712-.615.439-1.185 1.097-1.185 2.019 0 1.097 1.01 1.536 1.668 1.975.878.57 1.404.965 1.404 1.887 0 .834-.614 1.317-1.317 1.843-.57.44-1.316.922-1.316 1.931 0 .922.658 1.361 1.097 1.712.439.351.922.746.922 1.492s-.351 1.098-1.23 1.624c-.701.395-1.71 1.142-1.71 2.195 0 1.185.833 1.711 1.842 1.975 2.414.57 9.612 2.107 12.07 2.677.79.176 1.58.439 1.58 1.097 0 .659-1.053.966-2.545.966-5.18 0-19.575-1.053-28.046-3.994-5.75-1.931-8.91-5.486-8.91-9.743 0-3.687 2.458-6.979 5.136-8.866L6.496 23.17C2.633 25.848 0 30.105 0 34.582c0 5.18 3.072 10.446 11.543 13.299 8.997 3.028 22.647 3.95 29.011 3.95 4.345 0 6.452-1.8 6.452-4.52-.044-2.59-2.15-3.995-4.697-4.521z" fill="#FFD338"/>
</svg>
